# xmcd CD database file
#
# Track frame offsets:
#	150
#	12445
#	32190
#	46102
#	59517
#	70840
#	86270
#	100667
#	112620
#
# Disc length: 1673 seconds
#
# Revision: 0
# Processed by: cddbd v1.5.2PL0 Copyright (c) Steve Scherf et al.
# Submitted via: CDex 1.70beta2
#
DISCID=64068709
DTITLE=Paul Smith - Saratoga
DYEAR=1959
DGENRE=Jazz
TTITLE0=Petticoat High
TTITLE1=Goose Never Be A Peacock
TTITLE2=The Game Of Poker
TTITLE3=The Parks Of Paris
TTITLE4=Saratoga
TTITLE5=Love Held Lightly
TTITLE6=The Man In My Life
TTITLE7=You For Me
TTITLE8=Dog Eat Dog
EXTD=YEAR: 1959
EXTT0=
EXTT1=
EXTT2=
EXTT3=
EXTT4=
EXTT5=
EXTT6=
EXTT7=
EXTT8=
PLAYORDER=
